# xmcd CD database file
#
# Track frame offsets:
#	150
#	21140
#	42118
#	63970
#	84515
#	102429
#	123387
#	144590
#	166538
#	188960
#	210835
#
# Disc length: 3108 seconds
#
# Revision: 0
# Processed by: cddbd v1.5.1PL0 Copyright (c) Steve Scherf et al.
# Submitted via: CDex 1.51
#
DISCID=870c220b
DTITLE=レベッカ - Complete Edition II
DYEAR=2000
DGENRE=JPop
TTITLE0=Stefanie（remixed edition）
TTITLE1=Love Passion（remixed edition）
TTITLE2=蜃気楼（remixed edition）
TTITLE3=Monotone Boy（remixed edition）
TTITLE4=Motor Drive（remixed edition）
TTITLE5=White Sunday（remixed edition）
TTITLE6=Lonely Butterfly（remixed edition）
TTITLE7=Nervous But Glamorous（remixed edition）
TTITLE8=Noise From Your Heart（remixed edition）
TTITLE9=Super Girl（remixed edition）
TTITLE10=Cotton Love（remixed edition）
EXTD=YEAR: 2000
EXTT0=
EXTT1=
EXTT2=
EXTT3=
EXTT4=
EXTT5=
EXTT6=
EXTT7=
EXTT8=
EXTT9=
EXTT10=
PLAYORDER=
